<?xml version="1.0" encoding="UTF-8"?>
<svg id="Layer_1" data-name="Layer 1" xmlns="http://www.w3.org/2000/svg" version="1.1" viewBox="0 0 157 40">
  <defs>
    <style>
      .cls-1 {
        fill: #33c5f3;
      }

      .cls-1, .cls-2, .cls-3 {
        stroke-width: 0px;
      }

      .cls-2 {
        fill: #0d55a5;
      }

      .cls-3 {
        fill: #231f20;
      }
    </style>
  </defs>
  <g>
    <path class="cls-2" d="M13.18,19.16c1.65-.34,3.25-.94,4.75-1.72,3.77-1.95,13.95-7.18,19.61-9.66C33.91,3.3,28.37.43,22.15.43c-5.53,0-10.52,2.27-14.11,5.92-.39.44-4.74,5.54-2.25,10.85,1.13,2.66,4.69,2.51,7.39,1.95Z"/>
    <path class="cls-1" d="M38.84,9.59L5.56,31.03l-5.02,3.23h0s0,0,0,0c0,0,1.31-.37,3.5-1.12.72-.24,1.53-.53,2.42-.86,2.55-.94,5.76-2.21,9.26-3.84l6.16-2.48c1.36-.55,2.81-.88,4.28-.92,2.03-.05,4.61.35,5.96,2.58,2.21,3.65.75,7.67-5.71,11.94,8.89-1.95,15.55-9.86,15.55-19.33,0-3.02-.68-5.89-1.89-8.45,1.7-1.85,3.23-3.81,4.54-5.89l-5.75,3.7Z"/>
    <path class="cls-1" d="M51.25.46c-2.65.7-4.18,1.67-4.62,1.97-.09.06-.2.08-.3.06l-2.68-.51c.06.06.12.12.19.18,1.87,1.32,3.32,3.19,4.12,5.37.02.04.05.08.07.12h0s.19-2.72.19-2.72c0-.11.06-.21.14-.28.4-.35,1.73-1.59,3.08-3.97.07-.12-.04-.26-.17-.22Z"/>
  </g>
  <g>
    <g>
      <path class="cls-2" d="M56.07,7.78h12.22v3.86h-4.17v14.31h-3.92v-14.31h-4.14v-3.86Z"/>
      <path class="cls-2" d="M71,7.47h3.6v7.96c.65-.55,1.25-.96,1.8-1.2s1.19-.37,1.92-.37c1.25,0,2.22.45,2.93,1.35.71.9,1.06,2.15,1.06,3.74v7h-3.57v-6.38c0-.77-.2-1.41-.59-1.93-.39-.52-.87-.78-1.45-.78-.73,0-1.26.3-1.6.9-.34.6-.51,1.54-.51,2.81v5.38h-3.6V7.47Z"/>
      <path class="cls-2" d="M85.48,9.64c0-.6.22-1.12.65-1.55.43-.44.96-.65,1.56-.65s1.13.22,1.56.65c.43.44.65.95.65,1.55s-.22,1.13-.65,1.57c-.43.44-.96.65-1.56.65s-1.13-.22-1.56-.65c-.43-.44-.65-.96-.65-1.57ZM85.93,14.05h3.54v11.9h-3.54v-11.9Z"/>
      <path class="cls-2" d="M96.95,14.05v1.41c1.21-1.13,2.48-1.7,3.81-1.7,1.13,0,2.07.47,2.82,1.4.74.93,1.11,2.12,1.11,3.57v7.22h-3.6v-6.66c0-.68-.19-1.26-.56-1.73-.37-.47-.83-.71-1.36-.71-.65,0-1.18.3-1.59.89-.42.59-.62,1.36-.62,2.3v5.9h-3.54v-11.9h3.54Z"/>
      <path class="cls-2" d="M108.09,7.47h3.52v11.22l3.51-4.64h4.25l-3.95,5.24,4.28,6.66h-3.98l-4.12-6.3v6.3h-3.52V7.47Z"/>
    </g>
    <g>
      <path class="cls-1" d="M122.81,7.78h10.23v3.52h-6.34v3.71h6.34v3.54h-6.31v7.4h-3.92V7.78Z"/>
      <path class="cls-1" d="M136.36,7.47h3.54v18.48h-3.54V7.47Z"/>
      <path class="cls-1" d="M152.84,14.08l-3.04,6.91-3.42-6.91h-3.78l5.44,11.03-4.2,9.61c-.08.18.05.37.24.38l3.12.06c.11,0,.21-.06.25-.16l9.03-20.91h-3.62Z"/>
    </g>
    <g>
      <path class="cls-3" d="M60.45,32.26c0-1.36.8-2.19,1.87-2.19.51,0,.91.25,1.16.52l-.29.35c-.22-.24-.5-.4-.86-.4-.8,0-1.33.65-1.33,1.7s.51,1.72,1.31,1.72c.4,0,.71-.17.98-.47l.29.34c-.33.39-.75.61-1.29.61-1.05,0-1.84-.81-1.84-2.18Z"/>
      <path class="cls-3" d="M67.95,32.24c0-1.35.74-2.17,1.8-2.17s1.8.82,1.8,2.17-.74,2.2-1.8,2.2-1.8-.85-1.8-2.2ZM71,32.24c0-1.05-.5-1.7-1.25-1.7s-1.25.65-1.25,1.7.5,1.73,1.25,1.73,1.25-.68,1.25-1.73Z"/>
      <path class="cls-3" d="M76.46,30.15h.55l1.53,2.65.46.87h.03c-.03-.43-.07-.9-.07-1.34v-2.18h.51v4.22h-.55l-1.53-2.65-.46-.87h-.03c.03.43.07.88.07,1.32v2.21h-.51v-4.22Z"/>
      <path class="cls-3" d="M84.32,33.82l.32-.37c.3.31.72.52,1.16.52.55,0,.88-.28.88-.69,0-.43-.3-.57-.7-.74l-.61-.27c-.39-.17-.85-.46-.85-1.08s.56-1.12,1.33-1.12c.5,0,.95.22,1.24.52l-.28.34c-.26-.24-.57-.39-.96-.39-.47,0-.79.24-.79.62,0,.41.37.56.7.7l.6.26c.49.21.87.5.87,1.13,0,.67-.55,1.2-1.44,1.2-.59,0-1.11-.24-1.47-.63Z"/>
      <path class="cls-3" d="M92.05,32.62v-2.47h.54v2.49c0,1.01.43,1.33.98,1.33s1-.32,1-1.33v-2.49h.51v2.47c0,1.35-.65,1.82-1.51,1.82s-1.52-.46-1.52-1.82Z"/>
      <path class="cls-3" d="M100.22,30.15h.54v3.76h1.84v.45h-2.38v-4.22Z"/>
      <path class="cls-3" d="M107.46,30.6h-1.28v-.45h3.09v.45h-1.28v3.76h-.54v-3.76Z"/>
      <path class="cls-3" d="M114.65,30.15h.61l1.43,4.22h-.57l-.74-2.35c-.15-.47-.29-.93-.42-1.42h-.03c-.13.49-.27.95-.42,1.42l-.74,2.35h-.55l1.43-4.22ZM113.97,32.65h1.94v.43h-1.94v-.43Z"/>
      <path class="cls-3" d="M121.28,30.15h.55l1.53,2.65.46.87h.03c-.03-.43-.07-.9-.07-1.34v-2.18h.51v4.22h-.55l-1.53-2.65-.46-.87h-.03c.03.43.07.88.07,1.32v2.21h-.51v-4.22Z"/>
      <path class="cls-3" d="M129.2,32.26c0-1.36.8-2.19,1.87-2.19.51,0,.91.25,1.16.52l-.29.35c-.22-.24-.5-.4-.86-.4-.8,0-1.33.65-1.33,1.7s.51,1.72,1.3,1.72c.4,0,.71-.17.98-.47l.29.34c-.33.39-.75.61-1.29.61-1.05,0-1.84-.81-1.84-2.18Z"/>
      <path class="cls-3" d="M137.76,32.73l-1.27-2.58h.57l.54,1.19c.14.31.26.6.41.92h.03c.15-.32.29-.61.42-.92l.54-1.19h.56l-1.27,2.58v1.63h-.54v-1.63Z"/>
    </g>
  </g>
</svg>