<?xml version="1.0" encoding="UTF-8"?>
<svg id="Layer_1" data-name="Layer 1" xmlns="http://www.w3.org/2000/svg" version="1.1" viewBox="0 0 157 40">
  <defs>
    <style>
      .cls-1 {
        fill: #33c5f3;
      }

      .cls-1, .cls-2 {
        stroke-width: 0px;
      }

      .cls-2 {
        fill: #fff;
      }
    </style>
  </defs>
  <g>
    <path class="cls-2" d="M17.5,19.17c1.64-.35,3.19-.93,4.71-1.71,3.74-1.95,13.79-7.09,19.4-9.54-3.62-4.44-9.11-7.24-15.27-7.24-5.45,0-10.4,2.26-13.94,5.84-.39.43-4.67,5.49-2.22,10.75,1.13,2.61,4.64,2.45,7.32,1.91Z"/>
    <path class="cls-1" d="M42.86,9.7L9.95,30.89l-4.95,3.19h0s1.29-.35,3.47-1.09c.7-.23,1.52-.51,2.38-.86,2.53-.93,5.69-2.18,9.15-3.82l6.08-2.45c1.36-.55,2.77-.86,4.25-.9,2.03-.04,4.56.35,5.88,2.57,2.18,3.62.74,7.6-5.65,11.8,8.8-1.91,15.39-9.74,15.39-19.12,0-3-.66-5.8-1.87-8.37,1.67-1.83,3.19-3.78,4.48-5.84l-5.69,3.7Z"/>
    <path class="cls-1" d="M55.13.66c-2.61.7-4.13,1.64-4.56,1.95-.08.08-.19.08-.31.08l-2.65-.51c.08.04.12.12.19.19,1.87,1.29,3.27,3.16,4.09,5.3.04.04.04.08.08.12h0l.19-2.69c0-.12.04-.19.12-.27.39-.35,1.71-1.56,3.04-3.93.04-.12-.04-.27-.19-.23Z"/>
  </g>
  <g>
    <g>
      <path class="cls-2" d="M51.62,11.22h12.23v3.86h-4.17v14.29h-3.93v-14.29h-4.13v-3.86Z"/>
      <path class="cls-2" d="M66.58,10.91h3.58v7.95c.66-.55,1.25-.97,1.79-1.21.55-.23,1.21-.39,1.91-.39,1.25,0,2.22.47,2.92,1.36s1.05,2.14,1.05,3.74v7.01h-3.58v-6.39c0-.78-.19-1.4-.58-1.95-.39-.51-.86-.78-1.44-.78-.74,0-1.25.31-1.6.9-.35.58-.51,1.52-.51,2.8v5.38h-3.58V10.91h.04Z"/>
      <path class="cls-2" d="M81.03,13.09c0-.58.23-1.13.66-1.56.43-.43.97-.66,1.56-.66.62,0,1.13.23,1.56.66s.66.93.66,1.56-.23,1.13-.66,1.56c-.43.43-.97.66-1.56.66-.62,0-1.13-.23-1.56-.66-.43-.43-.66-.97-.66-1.56ZM81.5,17.49h3.54v11.92h-3.54v-11.92Z"/>
      <path class="cls-2" d="M92.52,17.49v1.4c1.21-1.13,2.49-1.71,3.82-1.71,1.13,0,2.06.47,2.8,1.4s1.13,2.1,1.13,3.58v7.21h-3.58v-6.66c0-.7-.19-1.25-.55-1.71-.39-.47-.82-.7-1.36-.7-.66,0-1.17.31-1.6.9s-.62,1.36-.62,2.3v5.88h-3.54v-11.88h3.51Z"/>
      <path class="cls-2" d="M103.66,10.91h3.51v11.22l3.51-4.64h4.25l-3.93,5.26,4.28,6.66h-3.97l-4.13-6.31v6.31h-3.51V10.91h0Z"/>
    </g>
    <g>
      <path class="cls-1" d="M118.39,11.22h10.24v3.51h-6.35v3.7h6.35v3.54h-6.31v7.4h-3.93V11.22h0Z"/>
      <path class="cls-1" d="M131.9,10.91h3.54v18.46h-3.54V10.91Z"/>
      <path class="cls-1" d="M148.38,17.49l-3.04,6.89-3.43-6.89h-3.78l5.45,11.02-4.21,9.62c-.08.16.04.39.23.39l3.12.04c.12,0,.19-.08.23-.16l9.04-20.92h-3.62Z"/>
    </g>
    <g>
      <path class="cls-2" d="M56.03,35.68c0-1.36.82-2.18,1.87-2.18.51,0,.9.23,1.17.51l-.31.35c-.23-.23-.51-.39-.86-.39-.78,0-1.32.66-1.32,1.71s.51,1.71,1.32,1.71c.39,0,.7-.19.97-.47l.31.35c-.35.39-.74.62-1.29.62-1.09-.04-1.87-.86-1.87-2.22Z"/>
      <path class="cls-2" d="M63.5,35.68c0-1.36.74-2.18,1.79-2.18s1.79.82,1.79,2.18-.74,2.22-1.79,2.22c-1.05-.04-1.79-.9-1.79-2.22ZM66.58,35.68c0-1.05-.51-1.71-1.25-1.71s-1.25.66-1.25,1.71.51,1.71,1.25,1.71c.74,0,1.25-.66,1.25-1.71Z"/>
      <path class="cls-2" d="M72.03,33.58h.55l1.52,2.65.47.86h.04c-.04-.43-.08-.9-.08-1.32v-2.18h.51v4.21h-.55l-1.52-2.65-.47-.86h-.04c.04.43.08.86.08,1.32v2.22h-.51v-4.25Z"/>
      <path class="cls-2" d="M79.9,37.24l.31-.35c.31.31.74.51,1.17.51.55,0,.9-.27.9-.7s-.31-.58-.7-.74l-.62-.27c-.39-.16-.86-.47-.86-1.09,0-.66.55-1.13,1.32-1.13.51,0,.93.23,1.25.51l-.27.35c-.27-.23-.58-.39-.97-.39-.47,0-.78.23-.78.62s.35.55.7.7l.58.27c.51.19.86.51.86,1.13,0,.66-.55,1.21-1.44,1.21-.58,0-1.09-.23-1.44-.62Z"/>
      <path class="cls-2" d="M87.61,36.07v-2.49h.55v2.49c0,1.01.43,1.32.97,1.32s1.01-.31,1.01-1.32v-2.49h.51v2.49c0,1.36-.66,1.83-1.52,1.83s-1.52-.51-1.52-1.83Z"/>
      <path class="cls-2" d="M95.79,33.58h.55v3.78h1.83v.47h-2.38v-4.25h0Z"/>
      <path class="cls-2" d="M103.04,34.04h-1.29v-.47h3.08v.47h-1.29v3.78h-.51v-3.78Z"/>
      <path class="cls-2" d="M110.21,33.58h.62l1.44,4.21h-.58l-.74-2.34c-.16-.47-.27-.93-.43-1.4h-.04c-.12.51-.27.93-.43,1.4l-.74,2.34h-.55l1.44-4.21ZM109.54,36.07h1.95v.43h-1.95v-.43Z"/>
      <path class="cls-2" d="M116.83,33.58h.55l1.52,2.65.47.86h.04c-.04-.43-.08-.9-.08-1.32v-2.18h.51v4.21h-.55l-1.52-2.65-.47-.86h-.04c.04.43.08.86.08,1.32v2.22h-.51v-4.25Z"/>
      <path class="cls-2" d="M124.73,35.68c0-1.36.82-2.18,1.87-2.18.51,0,.9.23,1.17.51l-.31.35c-.23-.23-.51-.39-.86-.39-.78,0-1.32.66-1.32,1.71s.51,1.71,1.32,1.71c.39,0,.7-.19.97-.47l.31.35c-.35.39-.74.62-1.29.62-1.09-.04-1.87-.86-1.87-2.22Z"/>
      <path class="cls-2" d="M133.3,36.15l-1.29-2.57h.58l.55,1.21c.12.31.27.62.39.93h.04c.16-.31.27-.62.43-.93l.55-1.21h.55l-1.29,2.57v1.64h-.55v-1.64h.04Z"/>
    </g>
  </g>
</svg>